# xmcd
#
# Track frame offsets:
#	150
#	19809
#	37310
#	56276
#	67213
#	85116
#	99111
#	120720
#	134395
#	147109
#	165700
#	184224
#	201221
#	217766
#
# Disc length: 2996 seconds
# Revision: 0
# Processed by: cddbd v1.5.2PL0 Copyright (c) Steve Scherf et al.
# Submitted via: dBpowerAMP V12.0
#
DISCID=c60bb20e
DTITLE=Gary Floyd Band - Naked Angel *acoustic
DYEAR=1995
DGENRE=Folk-Rock
TTITLE0=Maybe (Hillbilly Version)
TTITLE1=The Rejected Ones
TTITLE2=Spirit On The Wind
TTITLE3=Dallas
TTITLE4=King Bee (Big Ass White Version)
TTITLE5=Loving You (Was All I Ever Needed)
TTITLE6=More Than A Life Time
TTITLE7=One Backdoor Man
TTITLE8=King Bee (Honey Smoker Version)
TTITLE9=Beau Deen
TTITLE10=Can't Do That
TTITLE11=King Bee (Kissing Cousins Version)
TTITLE12=Angel Flying Too Close To The Ground
TTITLE13=Never Say Never
EXTD=
EXTT0=
EXTT1=
EXTT2=
EXTT3=
EXTT4=
EXTT5=
EXTT6=
EXTT7=
EXTT8=
EXTT9=
EXTT10=
EXTT11=
EXTT12=
EXTT13=
PLAYORDER=
